<svg xmlns="http://www.w3.org/2000/svg" viewBox="0 0 20.83 20.83"><g data-name="Слой 2"><path d="M15.11 10.42a.37.37 0 0 1-.33.36l-5.95.7a2.57 2.57 0 0 1 .07.4.8.8 0 0 1-.14.36H14a.38.38 0 0 1 .37.37.37.37 0 0 1-.37.39H8.17a.37.37 0 0 1-.37-.36 2.84 2.84 0 0 1 .35-.78l-1-4.7H6a.38.38 0 0 1-.37-.37A.37.37 0 0 1 6 6.4h1.44c.38 0 .39.46.45.73h6.85a.37.37 0 0 1 .37.36zm-6.57 4a.73.73 0 1 1 .73-.73.74.74 0 0 1-.73.74zm5.11 0a.73.73 0 1 1 .73-.73.73.73 0 0 1-.73.74z" fill="#fff" opacity=".3"/><path d="M20.33 10.42A9.92 9.92 0 1 1 10.42.5a9.91 9.91 0 0 1 9.91 9.92z" fill="none" stroke="#fff" stroke-miterlimit="10" opacity=".3"/></g></svg>