<svg xmlns="http://www.w3.org/2000/svg" xmlns:xlink="http://www.w3.org/1999/xlink" width="7" height="4"><defs><path id="a" d="M1073.236 76.032l-2.87 2.871a.212.212 0 0 1-.142.062.212.212 0 0 1-.142-.062l-2.87-2.87a.212.212 0 0 1-.063-.143c0-.049.025-.104.062-.14l.308-.309a.202.202 0 0 1 .142-.062.21.21 0 0 1 .141.062l2.422 2.421 2.421-2.42a.212.212 0 0 1 .141-.063c.05 0 .105.025.142.062l.308.308a.212.212 0 0 1 .062.141c0 .05-.025.105-.062.142z"/></defs><use fill="#fff" xlink:href="#a" transform="translate(-1067 -75)"/></svg>